<svg width="34" height="34" viewBox="0 0 34 34" fill="none" xmlns="http://www.w3.org/2000/svg">
<path d="M30.8125 4.25C32.5723 4.25 34 5.67707 34 7.4375C34 8.44023 33.5285 9.3832 32.725 9.9875L18.275 20.825C17.518 21.3895 16.482 21.3895 15.725 20.825L1.275 9.9875C0.472348 9.3832 0 8.44023 0 7.4375C0 5.67707 1.42707 4.25 3.1875 4.25H30.8125ZM14.45 22.525C15.9641 23.6605 18.0359 23.6605 19.55 22.525L34 11.6875V25.5C34 27.8441 32.0941 29.75 29.75 29.75H4.25C1.90254 29.75 0 27.8441 0 25.5V11.6875L14.45 22.525Z" fill="white"/>
</svg>
