<svg width="34" height="34" viewBox="0 0 34 34" fill="none" xmlns="http://www.w3.org/2000/svg">
<g clip-path="url(#clip0_33_108)">
<path d="M33.4688 17C33.4688 7.90234 26.0977 0.53125 17 0.53125C7.90234 0.53125 0.53125 7.90234 0.53125 17C0.53125 25.2198 6.55363 32.033 14.4268 33.2695V21.7607H10.2432V17H14.4268V13.3716C14.4268 9.24441 16.8838 6.96469 20.647 6.96469C22.4493 6.96469 24.3339 7.28609 24.3339 7.28609V11.3369H22.2567C20.2114 11.3369 19.5732 12.6066 19.5732 13.9088V17H24.1407L23.4102 21.7607H19.5732V33.2695C27.4464 32.033 33.4688 25.2198 33.4688 17Z" fill="white"/>
</g>
<defs>
<clipPath id="clip0_33_108">
<rect width="34" height="34" fill="white"/>
</clipPath>
</defs>
</svg>
