<svg width="79" height="79" viewBox="0 0 79 79" fill="none" xmlns="http://www.w3.org/2000/svg">
<g clip-path="url(#clip0_39_158)">
<path d="M61.8743 79C57.385 79 53.1401 77.2687 49.9203 74.1251C46.7053 70.9862 44.8708 66.7952 44.7566 62.3234L44.728 61.2285H14.5549L2.23592 76.6244C1.92172 77.018 1.54087 77.1005 1.27744 77.1005C0.658558 77.1005 0 76.6593 0 75.8405V7.60278C0 3.41022 3.41022 0 7.60278 0H64.7307C68.9233 0 72.3335 3.41022 72.3335 7.60278V48.3144L72.7429 48.6524C76.7181 51.9261 78.9984 56.7455 78.9984 61.8743C78.9984 71.3163 71.3163 78.9984 61.8743 78.9984V79ZM61.8743 47.2623C53.8161 47.2623 47.2607 53.8177 47.2607 61.8759C47.2607 69.9341 53.8161 76.4895 61.8743 76.4895C69.9325 76.4895 76.488 69.9341 76.488 61.8759C76.488 53.8177 69.9325 47.2623 61.8743 47.2623ZM7.60278 2.51204C4.79557 2.51204 2.51046 4.79557 2.51046 7.60436V72.2605L12.9696 59.1877C13.2092 58.8878 13.5663 58.7164 13.9503 58.7164H45.02L45.2279 57.8563C45.7468 55.7077 46.6672 53.705 47.9653 51.9007L49.2459 50.1202H20.2979C19.9345 50.1202 19.6012 49.9711 19.36 49.6997C19.1188 49.4284 19.0093 49.0792 19.0506 48.719L22.2244 21.7419C22.2989 21.1104 22.8353 20.6327 23.4716 20.6327H29.3574V16.3338C29.3574 12.5793 32.4122 9.5245 36.1667 9.5245C39.9213 9.5245 42.9761 12.5793 42.9761 16.3338V20.6327H48.8618C49.4982 20.6327 50.0345 21.1088 50.1091 21.7419L53.0925 47.0988L54.5112 46.4196C56.8217 45.3136 59.3004 44.7534 61.8743 44.7534C64.0848 44.7534 66.2383 45.1707 68.2758 45.9959L69.8214 46.6212V7.60278C69.8214 4.79557 67.5379 2.51046 64.7291 2.51046H7.60278V2.51204ZM21.7102 47.6066H50.6233L47.7447 23.1416H42.9761V26.647C42.9761 27.3389 42.4127 27.9022 41.7208 27.9022C41.029 27.9022 40.4656 27.3389 40.4656 26.647V23.1416H31.8695V26.647C31.8695 27.3389 31.3061 27.9022 30.6142 27.9022C29.9223 27.9022 29.359 27.3389 29.359 26.647V23.1416H24.5904L21.7118 47.6066H21.7102ZM36.1667 12.0334C33.7959 12.0334 31.8679 13.9614 31.8679 16.3322V20.6311H40.464V16.3322C40.464 13.9614 38.536 12.0334 36.1652 12.0334H36.1667Z" fill="#00A89E"/>
<path d="M59.2464 68.141C58.9116 68.141 58.5958 68.0109 58.3594 67.7729L53.8701 63.2852C53.6257 63.0408 53.494 62.7139 53.5019 62.3679C53.5098 62.022 53.6558 61.7015 53.9145 61.4666C54.1954 61.2111 54.5143 61.1572 54.7317 61.1572C55.0888 61.1572 55.4395 61.3031 55.6934 61.557L59.2464 65.1101L67.3348 57.0217C67.5728 56.7837 67.887 56.6536 68.2235 56.6536C68.5821 56.6536 68.9122 56.7996 69.155 57.0662C69.5977 57.5533 69.558 58.3515 69.0645 58.8451L60.1351 67.7745C59.8971 68.0125 59.5828 68.1426 59.2464 68.1426V68.141Z" fill="#00A89E"/>
</g>
<defs>
<clipPath id="clip0_39_158">
<rect width="79" height="79" fill="white"/>
</clipPath>
</defs>
</svg>
