<svg width="73" height="73" viewBox="0 0 73 73" fill="none" xmlns="http://www.w3.org/2000/svg">
<g clip-path="url(#clip0_39_161)">
<path d="M68.2194 18.0684H47.3153V4.13178C47.3153 1.86254 45.4511 0 43.1835 0H4.13178C1.86413 0 0 1.86413 0 4.13178V68.8682C0 71.1375 1.86413 73 4.13178 73H43.2658C45.535 73 47.3975 71.1359 47.3975 68.8682V51.5293H68.3017C70.8938 51.5293 73.0016 49.4231 73.0016 46.8294V22.7667C72.9209 20.1747 70.8146 18.0668 68.221 18.0668L68.2194 18.0684ZM68.2194 20.4991C69.4347 20.4991 70.4887 21.4707 70.4887 22.7683V26.8194H47.3168V20.4991H68.221H68.2194ZM14.2595 2.43064H33.0558V4.86129C33.0558 6.23802 32.0019 7.29193 30.6252 7.29193H16.6901C15.3134 7.29193 14.2595 6.15731 14.2595 4.86129V2.43064ZM4.13178 2.43064H11.9095V4.86129C11.9095 7.53563 14.0965 9.72257 16.7708 9.72257H30.7059C33.3802 9.72257 35.5671 7.53563 35.5671 4.86129V2.43064H43.3449C44.2358 2.43064 45.046 3.16015 45.046 4.13178V63.3581H2.43064V4.13178C2.43064 3.16015 3.16015 2.43064 4.13178 2.43064ZM43.2658 70.4887H4.13178C3.16015 70.4887 2.43064 69.7591 2.43064 68.7875V65.7081H44.8862V68.7875C44.8862 69.7591 44.1567 70.4887 43.2658 70.4887ZM68.2194 49.0987H47.3153V29.2484H70.4871V46.8294C70.4871 48.0448 69.4332 49.0987 68.2178 49.0987H68.2194Z" fill="#E50046"/>
<path d="M8.58796 51.5293H38.8096C39.134 51.5293 39.4584 51.3679 39.7005 51.1242C39.9426 50.8805 40.0249 50.4754 40.0249 50.1526L36.4597 24.0643C36.3789 23.4978 35.8931 23.0104 35.2443 23.0104H31.3547V21.7951C31.3547 17.5003 27.8701 14.0173 23.5769 14.0173C19.2837 14.0173 15.7992 17.5019 15.7992 21.7951V23.0104H11.9095C11.2607 23.0104 10.7749 23.4962 10.6942 24.0643L7.20964 50.1526C7.12894 50.477 7.29035 50.8821 7.53405 51.1242C7.77774 51.3663 8.18285 51.5293 8.58796 51.5293ZM18.3105 21.7144C18.3105 18.7979 20.6605 16.3673 23.6576 16.3673C26.6548 16.3673 29.0047 18.7172 29.0047 21.7144V22.9297H18.3105V21.7144ZM13.1248 25.441H34.2711L37.4313 49.0987H9.96627L13.1264 25.441H13.1248Z" fill="#E50046"/>
<path d="M27.7087 31.4369L17.9054 41.3208C17.4196 41.8067 17.4196 42.5362 17.9054 43.022C18.1491 43.2657 18.472 43.3464 18.7964 43.3464C19.1208 43.3464 19.4452 43.2657 19.6873 43.022L29.4098 33.2187C29.8957 32.7329 29.8957 32.0034 29.4098 31.5176C28.924 31.0318 28.1945 30.951 27.7087 31.4369Z" fill="#E50046"/>
<path d="M28.0331 40.4299C27.3843 40.4299 26.8178 40.9965 26.8178 41.6453C26.8178 42.2941 27.3843 42.8606 28.0331 42.8606C28.6819 42.8606 29.2484 42.2941 29.2484 41.6453C29.2484 40.9965 28.7626 40.4299 28.0331 40.4299Z" fill="#E50046"/>
<path d="M19.2837 34.1096C19.9325 34.1096 20.4991 33.5431 20.4991 32.8943C20.4991 32.2455 19.9325 31.679 19.2837 31.679C18.6349 31.679 18.0684 32.2455 18.0684 32.8943C18.0684 33.5431 18.6349 34.1096 19.2837 34.1096Z" fill="#E50046"/>
<path d="M32.8137 56.1484H14.5032C13.8544 56.1484 13.2878 56.715 13.2878 57.3638C13.2878 58.0126 13.8544 58.5791 14.5032 58.5791H32.8137C33.4625 58.5791 34.029 58.0126 34.029 57.3638C34.029 56.715 33.4625 56.1484 32.8137 56.1484Z" fill="#E50046"/>
<path d="M62.0621 35.8108C59.3878 35.8108 57.2008 37.9977 57.2008 40.6721C57.2008 43.3464 59.3878 45.5334 62.0621 45.5334C64.7364 45.5334 66.9234 43.3464 66.9234 40.6721C66.9234 37.9977 64.7364 35.8108 62.0621 35.8108ZM62.0621 43.022C60.7661 43.022 59.6314 41.9681 59.6314 40.5914C59.6314 39.2953 60.6854 38.1607 62.0621 38.1607C63.3581 38.1607 64.4927 39.2146 64.4927 40.5914C64.4927 41.9681 63.3581 43.022 62.0621 43.022Z" fill="#E50046"/>
</g>
<defs>
<clipPath id="clip0_39_161">
<rect width="73" height="73" fill="white"/>
</clipPath>
</defs>
</svg>
