<svg width="30" height="34" viewBox="0 0 30 34" fill="none" xmlns="http://www.w3.org/2000/svg">
<g clip-path="url(#clip0_33_106)">
<path d="M15.0067 9.36318C10.7478 9.36318 7.3125 12.7698 7.3125 16.9933C7.3125 21.2167 10.7478 24.6233 15.0067 24.6233C19.2656 24.6233 22.7009 21.2167 22.7009 16.9933C22.7009 12.7698 19.2656 9.36318 15.0067 9.36318ZM15.0067 21.9538C12.2545 21.9538 10.0045 19.7292 10.0045 16.9933C10.0045 14.2573 12.2478 12.0327 15.0067 12.0327C17.7656 12.0327 20.0089 14.2573 20.0089 16.9933C20.0089 19.7292 17.7589 21.9538 15.0067 21.9538ZM24.8103 9.05107C24.8103 10.0405 24.0067 10.8308 23.0156 10.8308C22.0179 10.8308 21.221 10.0339 21.221 9.05107C21.221 8.06826 22.0246 7.27139 23.0156 7.27139C24.0067 7.27139 24.8103 8.06826 24.8103 9.05107ZM29.9063 10.8573C29.7924 8.47334 29.2433 6.36162 27.4821 4.62178C25.7277 2.88193 23.5982 2.3374 21.1942 2.21787C18.7165 2.07842 11.2902 2.07842 8.8125 2.21787C6.41518 2.33076 4.28572 2.87529 2.52456 4.61514C0.763395 6.35498 0.220984 8.4667 0.100449 10.8507C-0.0401764 13.3077 -0.0401764 20.6722 0.100449 23.1292C0.214288 25.5132 0.763395 27.6249 2.52456 29.3647C4.28572 31.1046 6.40848 31.6491 8.8125 31.7687C11.2902 31.9081 18.7165 31.9081 21.1942 31.7687C23.5982 31.6558 25.7277 31.1112 27.4821 29.3647C29.2366 27.6249 29.7857 25.5132 29.9063 23.1292C30.0469 20.6722 30.0469 13.3144 29.9063 10.8573ZM26.7054 25.7655C26.183 27.0671 25.1719 28.0698 23.8527 28.5944C21.8772 29.3714 17.1897 29.1921 15.0067 29.1921C12.8237 29.1921 8.12947 29.3647 6.16072 28.5944C4.84822 28.0765 3.83706 27.0737 3.30804 25.7655C2.52456 23.8065 2.70536 19.1581 2.70536 16.9933C2.70536 14.8284 2.53125 10.1733 3.30804 8.221C3.83036 6.91943 4.84152 5.9167 6.16072 5.39209C8.13616 4.61514 12.8237 4.79443 15.0067 4.79443C17.1897 4.79443 21.8839 4.62178 23.8527 5.39209C25.1652 5.91006 26.1763 6.91279 26.7054 8.221C27.4888 10.18 27.308 14.8284 27.308 16.9933C27.308 19.1581 27.4888 23.8132 26.7054 25.7655Z" fill="white"/>
</g>
<defs>
<clipPath id="clip0_33_106">
<rect width="30" height="34" fill="white"/>
</clipPath>
</defs>
</svg>
