<svg width="26" height="34" viewBox="0 0 26 34" fill="none" xmlns="http://www.w3.org/2000/svg">
<g clip-path="url(#clip0_33_102)">
<path d="M13.8125 0.431641C6.86563 0.431641 0 4.97383 0 12.325C0 17 2.68125 19.6562 4.30625 19.6562C4.97656 19.6562 5.3625 17.8234 5.3625 17.3055C5.3625 16.6879 3.75781 15.373 3.75781 12.8031C3.75781 7.46406 7.90156 3.67891 13.2641 3.67891C17.875 3.67891 21.2875 6.24883 21.2875 10.9703C21.2875 14.4965 19.8453 21.1105 15.1734 21.1105C13.4875 21.1105 12.0453 19.9152 12.0453 18.202C12.0453 15.6918 13.8328 13.2613 13.8328 10.6715C13.8328 6.27539 7.475 7.07227 7.475 12.3848C7.475 13.5004 7.61719 14.7355 8.125 15.7516C7.19063 19.6961 5.28125 25.573 5.28125 29.6371C5.28125 30.8922 5.46406 32.1273 5.58594 33.3824C5.81615 33.6348 5.70104 33.6082 6.05313 33.482C9.46563 28.9 9.34375 28.0035 10.8875 22.007C11.7203 23.5609 13.8734 24.3977 15.5797 24.3977C22.7703 24.3977 26 17.5246 26 11.3289C26 4.73477 20.1906 0.431641 13.8125 0.431641Z" fill="white"/>
</g>
<defs>
<clipPath id="clip0_33_102">
<rect width="26" height="34" fill="white"/>
</clipPath>
</defs>
</svg>
