<svg width="30" height="34" viewBox="0 0 30 34" fill="none" xmlns="http://www.w3.org/2000/svg">
<path d="M19.1116 13.0887L12.8103 16.2098C12.8438 16.4688 12.7969 16.6746 12.7969 17C12.7969 17.2656 12.8438 17.4715 12.8103 17.7902L19.1116 20.9113C20.2634 19.8023 21.8371 19.125 23.5714 19.125C27.1205 19.125 30 21.9207 30 25.5C30 29.0195 27.1205 31.875 23.5714 31.875C19.9621 31.875 17.1429 29.0195 17.1429 25.5C17.1429 25.1746 17.1562 24.9688 17.1897 24.7098L10.8884 21.5887C9.73661 22.6977 8.16295 23.375 6.42857 23.375C2.87812 23.375 0 20.5195 0 17C0 13.4207 2.87812 10.625 6.42857 10.625C8.16295 10.625 9.73661 11.3023 10.8884 12.4113L17.1897 9.29023C17.1562 8.97148 17.1429 8.76562 17.1429 8.5C17.1429 4.97914 19.9621 2.125 23.5714 2.125C27.1205 2.125 30 4.97914 30 8.5C30 12.0195 27.1205 14.875 23.5714 14.875C21.8371 14.875 20.2634 14.1977 19.1116 13.0887Z" fill="white"/>
</svg>
