<svg width="30" height="34" viewBox="0 0 30 34" fill="none" xmlns="http://www.w3.org/2000/svg">
<path d="M25.5067 6.44805C22.7009 3.65898 18.9643 2.125 14.9933 2.125C6.79687 2.125 0.127232 8.73906 0.127232 16.8672C0.127232 19.4637 0.810268 22.0004 2.10938 24.2383L0 31.875L7.8817 29.823C10.0513 30.9984 12.4955 31.616 14.9866 31.616H14.9933C23.183 31.616 30 25.002 30 16.8738C30 12.9359 28.3125 9.23711 25.5067 6.44805ZM14.9933 29.1324C12.7701 29.1324 10.5937 28.5414 8.69866 27.4258L8.25 27.1602L3.57589 28.3754L4.82143 23.8531L4.52679 23.3883C3.28795 21.4359 2.63839 19.1848 2.63839 16.8672C2.63839 10.1137 8.18303 4.61523 15 4.61523C18.3013 4.61523 21.4018 5.89023 23.7321 8.20781C26.0625 10.5254 27.4955 13.6 27.4888 16.8738C27.4888 23.634 21.8036 29.1324 14.9933 29.1324ZM21.7701 19.9551C21.4018 19.7691 19.5737 18.8793 19.2321 18.7598C18.8906 18.6336 18.6429 18.5738 18.3951 18.9457C18.1473 19.3176 17.4375 20.141 17.2165 20.3934C17.0022 20.6391 16.7812 20.6723 16.4129 20.4863C14.2299 19.4039 12.7969 18.5539 11.3571 16.1035C10.9754 15.4527 11.7388 15.4992 12.4487 14.0914C12.5692 13.8457 12.5089 13.6332 12.4152 13.4473C12.3214 13.2613 11.5781 11.4484 11.2701 10.7113C10.9688 9.99414 10.6607 10.0938 10.433 10.0805C10.2188 10.0672 9.97098 10.0672 9.72321 10.0672C9.47545 10.0672 9.07366 10.1602 8.73214 10.5254C8.39062 10.8973 7.43304 11.7871 7.43304 13.6C7.43304 15.4129 8.76562 17.166 8.94643 17.4117C9.13393 17.6574 11.5647 21.3762 15.2946 22.9766C17.6518 23.9859 18.5759 24.0723 19.7545 23.8996C20.471 23.7934 21.9509 23.0098 22.2589 22.1465C22.567 21.2832 22.567 20.5461 22.4732 20.3934C22.3862 20.2273 22.1384 20.1344 21.7701 19.9551Z" fill="white"/>
</svg>
