<svg width="38" height="34" viewBox="0 0 38 34" fill="none" xmlns="http://www.w3.org/2000/svg">
<path d="M36.262 8.23989C35.8476 6.66938 34.6267 5.4325 33.0766 5.01274C30.2668 4.25 19 4.25 19 4.25C19 4.25 7.73326 4.25 4.92344 5.01274C3.37329 5.43256 2.15241 6.66938 1.73804 8.23989C0.985161 11.0865 0.985161 17.0258 0.985161 17.0258C0.985161 17.0258 0.985161 22.965 1.73804 25.8116C2.15241 27.3822 3.37329 28.5675 4.92344 28.9873C7.73326 29.75 19 29.75 19 29.75C19 29.75 30.2667 29.75 33.0766 28.9873C34.6267 28.5675 35.8476 27.3822 36.262 25.8116C37.0148 22.965 37.0148 17.0258 37.0148 17.0258C37.0148 17.0258 37.0148 11.0865 36.262 8.23989ZM15.3151 22.4182V11.6334L24.7319 17.0259L15.3151 22.4182Z" fill="white"/>
</svg>
